#N canvas 60 69 1237 686 10;
#X obj 20 13 inlet, f 8;
#X obj 19 518 outlet~;
#X obj 20 94 mtof;
#X obj 20 66 unpack 0 0;
#X obj 1038 148 line~;
#X obj 19 481 *~, f 171;
#X obj 19 438 osc~;
#X obj 217 348 osc~;
#X obj 217 370 *~;
#X obj 19 405 +~;
#X obj 794 235 receive fm1;
#X obj 793 259 unpack f f;
#X obj 707 324 * 5;
#X obj 754 322 t b f;
#X obj 708 360 * 1;
#X obj 707 268 * 100;
#X obj 74 262 line~;
#X obj 74 297 *~, f 12;
#X obj 20 124 t b f f f, f 33;
#X obj 164 211 line~;
#X obj 217 320 *~, f 18;
#X obj 124 36 t l l;
#X obj 327 91 unpack 0 0;
#X msg 164 183 1.61 \, 1.6 40;
#X msg 74 239 1.5 \, 2.01 200;
#X msg 1038 62 1 1;
#X obj 1038 33 sel 127 0;
#X msg 1078 74 0 500;
#X msg 1143 113 \$1 10;
#X obj 1144 70 * 0.01;
#X msg 489 197 \$1 200;
#X obj 489 151 * 0.1;
#X obj 489 174 + 1.55;
#X connect 0 0 21 0;
#X connect 2 0 18 0;
#X connect 3 0 2 0;
#X connect 4 0 5 1;
#X connect 5 0 1 0;
#X connect 6 0 5 0;
#X connect 7 0 8 0;
#X connect 8 0 9 0;
#X connect 9 0 6 0;
#X connect 10 0 11 0;
#X connect 11 0 15 0;
#X connect 11 1 13 0;
#X connect 12 0 14 0;
#X connect 13 0 14 0;
#X connect 13 1 14 1;
#X connect 16 0 17 0;
#X connect 17 0 8 1;
#X connect 18 0 24 0;
#X connect 18 0 23 0;
#X connect 18 1 9 1;
#X connect 18 2 17 1;
#X connect 18 3 20 1;
#X connect 19 0 20 0;
#X connect 20 0 7 0;
#X connect 21 0 22 0;
#X connect 21 1 3 0;
#X connect 22 1 26 0;
#X connect 23 0 19 0;
#X connect 24 0 16 0;
#X connect 25 0 4 0;
#X connect 26 0 25 0;
#X connect 26 1 27 0;
#X connect 26 2 29 0;
#X connect 27 0 4 0;
#X connect 28 0 4 0;
#X connect 29 0 28 0;
#X connect 29 0 31 0;
#X connect 30 0 19 0;
#X connect 31 0 32 0;
#X connect 32 0 30 0;
